<svg width="102" height="49" viewBox="0 0 102 49" fill="none" xmlns="http://www.w3.org/2000/svg">
<path d="M0 12.4031H2.90834V26.2363H0V12.4031Z" fill="#29292E"/>
<path d="M14.6868 21.2586C14.6868 21.2959 14.6681 21.5569 14.6308 22.0416H7.04305C7.17977 22.6631 7.50292 23.154 8.0125 23.5144C8.52208 23.8749 9.15595 24.0551 9.91411 24.0551C10.4361 24.0551 10.896 23.9805 11.2937 23.8314C11.7039 23.6698 12.0829 23.4212 12.4309 23.0856L13.9783 24.7635C13.0337 25.8448 11.6541 26.3855 9.83953 26.3855C8.70851 26.3855 7.70799 26.168 6.83798 25.733C5.96796 25.2855 5.29681 24.6703 4.82451 23.8873C4.35222 23.1043 4.11607 22.2156 4.11607 21.2213C4.11607 20.2394 4.346 19.357 4.80587 18.574C5.27816 17.7785 5.91825 17.1633 6.72612 16.7283C7.54642 16.2809 8.45994 16.0571 9.46667 16.0571C10.4485 16.0571 11.3372 16.2684 12.1326 16.691C12.9281 17.1136 13.5495 17.7226 13.997 18.518C14.4568 19.3011 14.6868 20.2146 14.6868 21.2586ZM9.48531 18.257C8.82659 18.257 8.27351 18.4435 7.82607 18.8163C7.37863 19.1892 7.1052 19.6988 7.00577 20.3451H11.9462C11.8468 19.7112 11.5734 19.2078 11.1259 18.835C10.6785 18.4497 10.1316 18.257 9.48531 18.257Z" fill="#29292E"/>
<path d="M22.3465 25.7516C22.0606 25.9629 21.7064 26.1245 21.2838 26.2363C20.8737 26.3358 20.4387 26.3855 19.9788 26.3855C18.7857 26.3855 17.8597 26.081 17.201 25.472C16.5547 24.863 16.2315 23.9681 16.2315 22.7873V18.6672H14.6841V16.43H16.2315V13.9877H19.1399V16.43H21.6381V18.6672H19.1399V22.7501C19.1399 23.1726 19.2455 23.502 19.4568 23.7381C19.6805 23.9619 19.9912 24.0737 20.389 24.0737C20.8488 24.0737 21.2403 23.9494 21.5635 23.7009L22.3465 25.7516Z" fill="#29292E"/>
<path d="M36.0785 16.0571C37.3338 16.0571 38.3282 16.43 39.0615 17.1757C39.8072 17.909 40.18 19.0152 40.18 20.4942V26.2363H37.2717V20.9417C37.2717 20.1462 37.1039 19.5559 36.7683 19.1706C36.4452 18.7728 35.9791 18.574 35.3701 18.574C34.6865 18.574 34.1459 18.7977 33.7481 19.2451C33.3504 19.6801 33.1516 20.3327 33.1516 21.2027V26.2363H30.2432V20.9417C30.2432 19.3632 29.6093 18.574 28.3416 18.574C27.6705 18.574 27.136 18.7977 26.7383 19.2451C26.3406 19.6801 26.1417 20.3327 26.1417 21.2027V26.2363H23.2334V16.2063H26.0112V17.3622C26.3841 16.9396 26.8377 16.6164 27.3722 16.3927C27.919 16.169 28.5156 16.0571 29.1619 16.0571C29.8703 16.0571 30.5104 16.2001 31.0822 16.4859C31.6539 16.7594 32.1137 17.1633 32.4618 17.6977C32.8719 17.1757 33.3877 16.7718 34.0091 16.4859C34.643 16.2001 35.3328 16.0571 36.0785 16.0571Z" fill="#29292E"/>
<path d="M51.9754 21.2586C51.9754 21.2959 51.9567 21.5569 51.9194 22.0416H44.3316C44.4684 22.6631 44.7915 23.154 45.3011 23.5144C45.8107 23.8749 46.4445 24.0551 47.2027 24.0551C47.7247 24.0551 48.1846 23.9805 48.5823 23.8314C48.9925 23.6698 49.3715 23.4212 49.7195 23.0856L51.2669 24.7635C50.3223 25.8448 48.9427 26.3855 47.1281 26.3855C45.9971 26.3855 44.9966 26.168 44.1266 25.733C43.2566 25.2855 42.5854 24.6703 42.1131 23.8873C41.6408 23.1043 41.4047 22.2156 41.4047 21.2213C41.4047 20.2394 41.6346 19.357 42.0945 18.574C42.5668 17.7785 43.2068 17.1633 44.0147 16.7283C44.835 16.2809 45.7485 16.0571 46.7553 16.0571C47.7371 16.0571 48.6258 16.2684 49.4212 16.691C50.2167 17.1136 50.8381 17.7226 51.2856 18.518C51.7454 19.3011 51.9754 20.2146 51.9754 21.2586ZM46.7739 18.257C46.1152 18.257 45.5621 18.4435 45.1147 18.8163C44.6672 19.1892 44.3938 19.6988 44.2944 20.3451H49.2348C49.1354 19.7112 48.8619 19.2078 48.4145 18.835C47.9671 18.4497 47.4202 18.257 46.7739 18.257Z" fill="#29292E"/>
<path d="M68.9799 16.2063L66.9851 26.2363H64.2259L64.4123 25.2482C63.5796 26.0064 62.5542 26.3855 61.3362 26.3855C60.5532 26.3855 59.8323 26.2053 59.1736 25.8448C58.5149 25.4844 57.9866 24.9686 57.5889 24.2974C57.2036 23.6139 57.011 22.8122 57.011 21.8925C57.011 20.7863 57.2533 19.792 57.7381 18.9096C58.2352 18.0147 58.9064 17.3187 59.7515 16.8215C60.5967 16.3119 61.5289 16.0571 62.548 16.0571C64.0892 16.0571 65.1767 16.5605 65.8106 17.5672L66.0716 16.2063H68.9799ZM62.2311 23.9805C62.8028 23.9805 63.3124 23.8438 63.7598 23.5704C64.2073 23.2845 64.5553 22.893 64.8038 22.3958C65.0524 21.8987 65.1767 21.327 65.1767 20.6807C65.1767 19.9971 64.9716 19.4564 64.5615 19.0587C64.1638 18.661 63.6045 18.4621 62.8836 18.4621C62.3119 18.4621 61.8023 18.6051 61.3549 18.8909C60.9074 19.1643 60.5594 19.5496 60.3108 20.0468C60.0623 20.5439 59.938 21.1157 59.938 21.762C59.938 22.4456 60.1368 22.9862 60.5346 23.3839C60.9447 23.7816 61.5102 23.9805 62.2311 23.9805Z" fill="url(#paint0_linear)"/>
<path d="M72.5861 26.3855C71.7161 26.3855 70.8895 26.2923 70.1065 26.1058C69.3359 25.907 68.7331 25.6522 68.2981 25.3415L69.4167 23.2348C69.8517 23.5206 70.38 23.7506 71.0014 23.9246C71.6353 24.0986 72.2691 24.1856 72.903 24.1856C73.5617 24.1856 74.0527 24.1048 74.3758 23.9432C74.699 23.7692 74.8605 23.5269 74.8605 23.2161C74.8605 22.9676 74.7176 22.7873 74.4318 22.6755C74.1459 22.5636 73.686 22.4455 73.0522 22.3213C72.3313 22.1845 71.7347 22.0354 71.2624 21.8738C70.8025 21.7123 70.3986 21.4512 70.0506 21.0908C69.715 20.7179 69.5472 20.2146 69.5472 19.5807C69.5472 18.4745 70.0071 17.6107 70.9268 16.9893C71.859 16.3679 73.077 16.0571 74.5809 16.0571C75.2769 16.0571 75.9543 16.1317 76.613 16.2809C77.2717 16.43 77.831 16.6351 78.2909 16.8961L77.2469 19.0214C76.4266 18.5118 75.4385 18.257 74.2826 18.257C73.6487 18.257 73.164 18.3503 72.8284 18.5367C72.5053 18.7231 72.3437 18.9593 72.3437 19.2451C72.3437 19.5061 72.4866 19.6988 72.7725 19.8231C73.0584 19.9349 73.5369 20.0592 74.208 20.1959C74.9165 20.3327 75.4944 20.4818 75.9419 20.6434C76.4017 20.7925 76.7994 21.0473 77.135 21.4077C77.4706 21.7682 77.6384 22.2591 77.6384 22.8806C77.6384 23.9992 77.1661 24.863 76.2215 25.472C75.2893 26.081 74.0775 26.3855 72.5861 26.3855Z" fill="url(#paint1_linear)"/>
<path d="M85.5664 20.5688L89.0154 26.2363H85.641L83.2547 22.3399L81.4835 23.8127L80.9988 26.2363H78.0905L80.8497 12.4031H83.758L82.2106 20.14L87.0206 16.2063H90.8051L85.5664 20.5688Z" fill="url(#paint2_linear)"/>
<path d="M52.723 10.3896V5.72876C52.723 3.66949 54.3924 2.00012 56.4517 2.00012H96.5346C98.5938 2.00012 100.263 3.66949 100.263 5.72876V31.8293C100.263 33.8885 98.5938 35.5579 96.5346 35.5579H90.0094L92.1901 45.7345C92.3807 46.624 91.3148 47.2318 90.6464 46.6147L80.6878 37.4222H56.4517C54.3924 37.4222 52.723 35.7528 52.723 33.6936V31.8293" stroke="url(#paint3_linear)" stroke-width="2.79648"/>
<defs>
<linearGradient id="paint0_linear" x1="57.011" y1="12.4031" x2="64.8651" y2="34.5833" gradientUnits="userSpaceOnUse">
<stop stop-color="#485BFF"/>
<stop offset="1" stop-color="#FF59F8"/>
</linearGradient>
<linearGradient id="paint1_linear" x1="57.011" y1="12.4031" x2="64.8651" y2="34.5833" gradientUnits="userSpaceOnUse">
<stop stop-color="#485BFF"/>
<stop offset="1" stop-color="#FF59F8"/>
</linearGradient>
<linearGradient id="paint2_linear" x1="57.011" y1="12.4031" x2="64.8651" y2="34.5833" gradientUnits="userSpaceOnUse">
<stop stop-color="#485BFF"/>
<stop offset="1" stop-color="#FF59F8"/>
</linearGradient>
<linearGradient id="paint3_linear" x1="52.723" y1="2.00012" x2="91.8738" y2="50.4725" gradientUnits="userSpaceOnUse">
<stop stop-color="#485BFF"/>
<stop offset="1" stop-color="#FF59F8"/>
</linearGradient>
</defs>
</svg>
